<svg version="1.1" id="Layer_1" class="logo logo--small" xmlns="http://www.w3.org/2000/svg"
     xmlns:xlink="http://www.w3.org/1999/xlink" x="0px" y="0px" viewBox="0 0 247.9 75"
     style="enable-background:new 0 0 247.9 75;" xml:space="preserve">

<path fill="rgb(255, 51, 0)" class="st0" d="M79.5,19.7H87v44.9h-7.5V19.7z M79.5,5.8v6.8H87V2.1L79.5,5.8z M175.9,22.9c-2.8-2.8-6.8-4.3-11.7-4.3
	c-5.7,0-10.3,2.8-12.7,6.4V1.7H144v62.9h7.5V40.1c0-6.1,1-8.7,3.4-11.3c2-2.2,4.9-3.4,8-3.4c3.2,0,5.6,0.9,7.6,3.1
	c1.8,2,2.5,4.6,2.5,9.2v26.9h7.5V35.8C180.4,29.5,179,26,175.9,22.9 M209.9,59.3c-7.6,0-12.8-6.6-12.8-17.1
	c0-9.5,4.5-17.1,12.8-17.1c8,0,12.8,7.1,12.8,17.1C222.7,52.8,217.4,59.3,209.9,59.3 M222.4,1.7V25c-3.2-4.3-7.9-6.4-13.4-6.4
	c-8.7,0-19.4,6.6-19.4,23.6c0,14.5,8.3,23.4,19.4,23.4c5.4,0,11.1-2.2,14.1-8.1c0,3.9,0.8,7,0.8,7h7.8c0,0-1.8-7.1-1.8-22.4V1.7
	H222.4z M30.1,52.3c0-1.2-0.3-2.4-1.1-3.4c-1.3-1.6-3.2-2.4-6.4-3.2c-1.8-0.4-3-0.7-4.6-1c-3.8-0.8-7.8-1.8-10.7-3.6
	c-3.2-2-4.9-4.9-4.9-8.8c0-8,6.6-13.6,16-13.6c9.5,0,15.8,4.4,18.5,10.6l-6.9,4.6c-1-4.9-5.4-9.2-11.8-9.2c-5,0-8.6,2.5-8.6,6.6
	c0,1.6,0.6,2.5,1.4,3.3c1.7,1.5,4,2.1,7.7,3c1.6,0.4,3.3,0.7,4.9,1.1c7.5,1.7,10.9,3.9,12.9,7.6c0.7,1.4,1.2,3.1,1.2,5.5
	c0,8.2-6.7,13.8-17.3,13.8C9.9,65.6,3,61.5,0.5,53l6.8-4.6c1.6,7.7,6.4,11.1,13,11.1C26.1,59.5,30.1,56.6,30.1,52.3 M60.5,65.7
	c-2.8,0-5.5-0.7-7.4-2.4c-2-1.9-3.1-4.2-3.1-9.2V25.6h-8.2v-5.9h8.2V7.3l7.5-3.7v16.1h11.6v5.9H57.6v27.9c0,2.1,0.3,3.6,1,4.4
	c0.6,0.9,1.4,1.4,2.8,1.4c2.4,0,4.2-1.8,5.2-4.3l4,6.1C68.5,63.7,65.2,65.7,60.5,65.7 M135.2,52.6c-2.7,8.3-9.2,13.1-18,13.1
	c-12.2,0-20.3-8.4-20.3-23.5c0-13.8,7.6-23.5,20-23.5c8.7,0,15.3,4.5,18.3,13l-7.3,4.7c-0.8-7.3-5.4-11.2-11-11.2
	c-7.7,0-12.5,6.7-12.5,17.1c0,10.8,5,17.1,12.5,17.1c5.6,0,10.1-3.6,11-11.3L135.2,52.6 M241.6,1.7c-3.4,0-5.9,2.5-5.9,6
	c0,3.5,2.5,6,5.9,6c3.4,0,5.9-2.5,5.9-6C247.5,4.2,245,1.7,241.6,1.7 M241.6,12.8c-2.9,0-4.9-2.2-4.9-5.2c0-3,2.1-5.2,4.9-5.2
	c2.9,0,4.9,2.2,4.9,5.2C246.6,10.7,244.5,12.8,241.6,12.8 M244.2,6.4c0-1.1-0.9-1.8-2.2-1.8h-2.5v5.8h0.9V8.2h1.5l1.2,2.2h1
	l-1.3-2.3L243,8C243.8,7.8,244.2,7.2,244.2,6.4 M242.1,7.4h-1.7v-2h1.7c0.8,0,1.2,0.4,1.2,1S242.9,7.4,242.1,7.4"></path>
</svg>