<?xml version="1.0" standalone="no"?>
<!DOCTYPE svg PUBLIC "-//W3C//DTD SVG 20010904//EN"
        "http://www.w3.org/TR/2001/REC-SVG-20010904/DTD/svg10.dtd">
<svg version="1.0" xmlns="http://www.w3.org/2000/svg"
     width="225.000000pt" height="225.000000pt" viewBox="0 0 225.000000 225.000000"
     preserveAspectRatio="xMidYMid meet">
    <metadata>
        Versteijnen
    </metadata>
    <g transform="translate(0.000000,225.000000) scale(0.100000,-0.100000)"
       fill="rgb(0,0,0)" stroke="none">
        <path d="M90 1090 l0 -650 225 0 225 0 0 650 0 650 -225 0 -225 0 0 -650z"/>
        <path d="M685 1526 l0 -214 30 26 c17 14 117 110 224 213 l193 189 -223 0
-224 0 0 -214z"/>
        <path d="M975 1467 l-280 -272 -7 -345 c-3 -190 -5 -346 -4 -347 1 -1 281 277
621 617 l620 620 -335 0 -335 -1 -280 -272z"/>
        <path d="M1532 1227 l-452 -452 0 -168 0 -167 255 0 255 0 2 403 3 402 198 0
197 0 0 218 c0 119 -1 217 -3 217 -1 0 -206 -204 -455 -453z"/>
        <path d="M1925 765 l-16 -75 -79 0 -79 0 -10 -37 c-18 -63 -18 -63 64 -63 86
0 85 2 60 -90 -8 -30 -15 -56 -15 -57 0 -2 26 -3 59 -3 l58 0 7 38 c3 20 11
54 16 75 l11 37 79 0 c43 0 81 3 83 8 3 4 8 26 12 50 l7 42 -81 0 c-45 0 -81
1 -81 3 0 1 9 35 19 75 l19 72 -58 0 -58 0 -17 -75z"/>
    </g>
</svg>
